<svg xmlns="http://www.w3.org/2000/svg" width="17" height="17" fill="none" style=""><rect id="backgroundrect" width="100%" height="100%" x="0" y="0" fill="none" stroke="none"/>
    <g class="currentLayer" style=""><title>Layer 1</title><path fill-rule="evenodd" clip-rule="evenodd" d="M17.000000476837158,16.039 C17.000000476837158,16.4302 16.68290047683716,16.7474 16.291700476837157,16.7474 H5.666760476837158 C5.275560476837159,16.7474 4.958430476837158,16.4302 4.958430476837158,16.039 C4.958430476837158,15.6478 5.275560476837159,15.3307 5.666760476837158,15.3307 H16.291700476837157 C16.68290047683716,15.3307 17.000000476837158,15.6478 17.000000476837158,16.039 zM4.490940476837158,12.936599999999999 L1.2255504768371583,11.0807 C1.0103004768371582,10.9563 0.7455504768371579,10.9538 0.5279904768371582,11.0741 C0.3104304768371584,11.1945 0.17192047683715828,11.4202 0.16306047683715796,11.6687 L0.00014047683715823212,16.3365 C-0.00368952316284199,16.478 0.07089047683715854,16.61 0.19402047683715828,16.6797 C0.317150476837158,16.7494 0.46872047683715845,16.7455 0.5880504768371582,16.6694 L4.519270476837159,14.154900000000001 C4.731440476837157,14.022400000000001 4.857980476837158,13.787700000000001 4.852160476837158,13.537600000000001 C4.846340476837158,13.287600000000001 4.709040476837158,13.0591 4.490940476837158,12.936599999999999 zM2.8334504768371582,10.2166 L4.441350476837158,11.1374 C5.460500476837158,11.7177 6.757100476837158,11.3627 7.338400476837158,10.344100000000001 L10.880100476837159,4.096629999999999 C11.460400476837158,3.0774800000000004 11.105300476837158,1.7808799999999998 10.086700476837159,1.1995699999999996 L8.478800476837158,0.27874 C7.459700476837158,-0.3015699999999999 6.163100476837158,0.05349000000000004 5.581760476837157,1.07207 L2.040120476837158,7.3195 C1.4598104768371583,8.3387 1.8148704768371582,9.6353 2.8334504768371582,10.2166 z" fill="#ffffff" id="svg_1" class=""/></g>
</svg>
