<svg xmlns="http://www.w3.org/2000/svg" width="12" height="16" fill="none"><rect id="backgroundrect" width="100%" height="100%" x="0" y="0" fill="none" stroke="none"/>
	
	
<g class="currentLayer" style=""><title>Layer 1</title><path fill-rule="evenodd" clip-rule="evenodd" d="M12.0486,3.9448516689300535 V10.631001668930054 C12.0486,11.369501668930054 11.4499,11.968201668930053 10.711400000000001,11.968201668930053 C10.342099999999999,11.968201668930053 10.0428,11.668901668930054 10.0428,11.299601668930054 V6.846601668930054 C10.043099999999999,6.642801668930053 9.9612,6.4475016689300535 9.8154,6.305101668930053 L7.4887,4.005021668930054 C7.0737000000000005,3.583421668930054 6.508900000000001,3.343061668930054 5.917400000000001,3.3364116689300536 H3.3566000000000003 C2.9873399999999997,3.3364116689300536 2.687990000000001,3.037061668930054 2.687990000000001,2.667791668930054 V1.9189416689300538 C2.687990000000001,1.4088516689300539 2.8910800000000005,0.9197516689300542 3.25239,0.5596816689300539 C3.6137099999999993,0.19962166893005406 4.1035,-0.0017683310699463384 4.6136,0.00001166893005333236 H8.164 C8.666,0.005071668930053619 9.1461,0.20671166893005388 9.5012,0.5616516689300539 L11.507000000000001,2.5675016689300536 C11.863800000000001,2.9361416689300537 12.058800000000002,3.4319216689300536 12.0486,3.9448516689300535 z" fill="#ffffff" id="svg_1" class=""/><path fill-rule="evenodd" clip-rule="evenodd" d="M8.8124,6.619301668930055 L6.8065,4.613461668930054 C6.4521999999999995,4.257291668930053 5.9716000000000005,4.0554416689300545 5.4693000000000005,4.051821668930053 H1.9189299999999996 C0.8580500000000004,4.055501668930054 -0.000009999999999621423,4.916551668930055 0,5.977431668930054 V14.074401668930054 C0,15.137901668930052 0.8621300000000005,16.000001668930054 1.9256099999999998,16.000001668930054 H7.468400000000001 C8.5241,15.989001668930054 9.3741,15.130101668930052 9.374,14.074401668930054 V7.956501668930054 C9.3792,7.451701668930054 9.1873,6.964801668930054 8.8391,6.599201668930053 L8.8124,6.619301668930055 z" fill="#ffffff" id="svg_2" class=""/></g></svg>