<?xml version="1.0" encoding="UTF-8"?>
<svg width="40px" height="30px" viewBox="0 0 40 30" version="1.1" xmlns="http://www.w3.org/2000/svg" xmlns:xlink="http://www.w3.org/1999/xlink">
    <!-- Generator: Sketch 53.2 (72643) - https://sketchapp.com -->
    <title>il_mail</title>
    <desc>Created with Sketch.</desc>
    <g id="Symbols" stroke="none" stroke-width="1" fill="none" fill-rule="evenodd">
        <g id="Mail_card_iOS" transform="translate(-144.000000, -38.000000)">
            <g id="Group-10">
                <g id="Domain-Copy-3">
                    <g id="il_mail" transform="translate(139.000000, 28.000000)">
                        <rect id="Rectangle" x="0" y="0" width="50" height="50"></rect>
                        <g id="Mail-2-Copy-2" transform="translate(5.000000, 10.000000)">
                            <path d="M35,0 L5,0 C2.23857625,0 0,2.23857625 0,5 L0,25 C0,27.7614237 2.23857625,30 5,30 L35,30 C37.7614237,30 40,27.7614237 40,25 L40,5 C40,2.23857625 37.7614237,0 35,0 Z" id="Shape" fill="#22242B"></path>
                            <path d="M19.1666667,19.1666667 L38.5,1.43333333 C38.2698331,1.20972937 38.0186746,1.00880259 37.75,0.833333333 L2.25,0.833333333 C1.66828986,1.22098065 1.17432823,1.72629771 0.8,2.31666667 L19.1666667,19.1666667 Z" id="Shape" fill="#22242B"></path>
                            <path d="M20,11.6666667 L1.53333333,28.6 C2.46437673,29.4973894 3.70688406,29.9991712 5,30 L35,30 C36.2931159,29.9991712 37.5356233,29.4973894 38.4666667,28.6 L20,11.6666667 Z" id="Shape" fill="#585D6A" opacity="0.612885975"></path>
                            <path d="M15.5,15.8 L18.05,18.1333333 C18.6868485,18.7159606 19.6631515,18.7159606 20.3,18.1333333 L23.6333333,15.0333333 L19.9666667,11.7 L15.5,15.8 Z" id="Shape" fill="#22242B"></path>
                            <path d="M21.1333333,17.3 L38.4666667,1.4 C37.5356233,0.50261062 36.2931159,0.000828813376 35,-1.13686838e-13 L5,-1.13686838e-13 C3.70688406,0.000828813376 2.46437673,0.50261062 1.53333333,1.4 L18.8666667,17.3 C19.5059219,17.892862 20.4940781,17.892862 21.1333333,17.3 Z" id="Shape" fill="#8C92A5"></path>
                        </g>
                    </g>
                </g>
            </g>
        </g>
    </g>
</svg>