<svg xmlns="http://www.w3.org/2000/svg" xmlns:xlink="http://www.w3.org/1999/xlink" width="15" height="15" version="1.1" style=""><rect id="backgroundrect" width="100%" height="100%" x="0" y="0" fill="none" stroke="none"/>

<g class="currentLayer" style=""><title>Layer 1</title><g id="surface1" class="">
<path style=" stroke:none;fill-rule:evenodd;fill:rgb(0%,76.862745%,59.215686%);fill-opacity:1;" d="M6.218749988418579,8.085937988418578 L0.6210939884185791,8.085937988418578 C0.2773439884185791,8.085937988418578 -1.1581420933381992e-8,7.808593988418579 -1.1581420933381992e-8,7.464843988418579 C-1.1581420933381992e-8,7.121093988418579 0.2773439884185791,6.843749988418579 0.6210939884185791,6.843749988418579 L6.218749988418579,6.843749988418579 C6.562499988418579,6.843749988418579 6.843749988418579,6.562499988418579 6.843749988418579,6.218749988418579 L6.843749988418579,0.6210939884185791 C6.843749988418579,0.2773439884185791 7.121093988418579,-1.1581420933381992e-8 7.464843988418579,-1.1581420933381992e-8 C7.808593988418579,-1.1581420933381992e-8 8.085937988418578,0.2773439884185791 8.085937988418578,0.6210939884185791 L8.085937988418578,6.218749988418579 C8.085937988418578,7.249999988418579 7.249999988418579,8.085937988418578 6.218749988418579,8.085937988418578 zM5.5976559884185795,4.976562988418579 L5.5976559884185795,1.2421879884185791 C5.5976559884185795,0.5546879884185791 5.042968988418579,-1.1581420933381992e-8 4.355468988418579,-1.1581420933381992e-8 L1.2421879884185791,-1.1581420933381992e-8 C0.5546879884185791,-1.1581420933381992e-8 -1.1581420933381992e-8,0.5546879884185791 -1.1581420933381992e-8,1.2421879884185791 L-1.1581420933381992e-8,4.355468988418579 C-1.1581420933381992e-8,5.042968988418579 0.5546879884185791,5.5976559884185795 1.2421879884185791,5.5976559884185795 L2.488281988418579,5.5976559884185795 C2.832031988418579,5.5976559884185795 3.1093749884185793,5.320312988418579 3.1093749884185793,4.976562988418579 C3.1093749884185793,4.632812988418579 2.832031988418579,4.355468988418579 2.488281988418579,4.355468988418579 L1.2421879884185791,4.355468988418579 L1.2421879884185791,1.2421879884185791 L4.355468988418579,1.2421879884185791 L4.355468988418579,4.976562988418579 C4.355468988418579,5.320312988418579 4.632812988418579,5.5976559884185795 4.976562988418579,5.5976559884185795 C5.320312988418579,5.5976559884185795 5.5976559884185795,5.320312988418579 5.5976559884185795,4.976562988418579 zM14.929687988418578,4.355468988418579 L14.929687988418578,1.2421879884185791 C14.929687988418578,0.5546879884185791 14.37499998841858,-1.1581420933381992e-8 13.68749998841858,-1.1581420933381992e-8 L10.574218988418579,-1.1581420933381992e-8 C9.886718988418579,-1.1581420933381992e-8 9.33203198841858,0.5546879884185791 9.33203198841858,1.2421879884185791 L9.33203198841858,2.488281988418579 C9.33203198841858,2.832031988418579 9.60937498841858,3.1093749884185793 9.95312498841858,3.1093749884185793 C10.29687498841858,3.1093749884185793 10.574218988418579,2.832031988418579 10.574218988418579,2.488281988418579 L10.574218988418579,1.2421879884185791 L13.68749998841858,1.2421879884185791 L13.68749998841858,4.355468988418579 L9.95312498841858,4.355468988418579 C9.60937498841858,4.355468988418579 9.33203198841858,4.632812988418579 9.33203198841858,4.976562988418579 C9.33203198841858,5.320312988418579 9.60937498841858,5.5976559884185795 9.95312498841858,5.5976559884185795 L13.68749998841858,5.5976559884185795 C14.37499998841858,5.5976559884185795 14.929687988418578,5.042968988418579 14.929687988418578,4.355468988418579 zM5.5976559884185795,13.68749998841858 L5.5976559884185795,12.441405988418579 C5.5976559884185795,12.097655988418579 5.320312988418579,11.820312988418578 4.976562988418579,11.820312988418578 C4.632812988418579,11.820312988418578 4.355468988418579,12.097655988418579 4.355468988418579,12.441405988418579 L4.355468988418579,13.68749998841858 L1.2421879884185791,13.68749998841858 L1.2421879884185791,10.574218988418579 L4.976562988418579,10.574218988418579 C5.320312988418579,10.574218988418579 5.5976559884185795,10.29687498841858 5.5976559884185795,9.95312498841858 C5.5976559884185795,9.60937498841858 5.320312988418579,9.33203198841858 4.976562988418579,9.33203198841858 L1.2421879884185791,9.33203198841858 C0.5546879884185791,9.33203198841858 -1.1581420933381992e-8,9.886718988418579 -1.1581420933381992e-8,10.574218988418579 L-1.1581420933381992e-8,13.68749998841858 C-1.1581420933381992e-8,14.37499998841858 0.5546879884185791,14.929687988418578 1.2421879884185791,14.929687988418578 L4.355468988418579,14.929687988418578 C5.042968988418579,14.929687988418578 5.5976559884185795,14.37499998841858 5.5976559884185795,13.68749998841858 zM14.929687988418578,13.68749998841858 L14.929687988418578,10.574218988418579 C14.929687988418578,9.886718988418579 14.37499998841858,9.33203198841858 13.68749998841858,9.33203198841858 L12.441405988418579,9.33203198841858 C12.097655988418579,9.33203198841858 11.820312988418578,9.60937498841858 11.820312988418578,9.95312498841858 C11.820312988418578,10.29687498841858 12.097655988418579,10.574218988418579 12.441405988418579,10.574218988418579 L13.68749998841858,10.574218988418579 L13.68749998841858,13.68749998841858 L10.574218988418579,13.68749998841858 L10.574218988418579,9.95312498841858 C10.574218988418579,9.60937498841858 10.29687498841858,9.33203198841858 9.95312498841858,9.33203198841858 C9.60937498841858,9.33203198841858 9.33203198841858,9.60937498841858 9.33203198841858,9.95312498841858 L9.33203198841858,13.68749998841858 C9.33203198841858,14.37499998841858 9.886718988418579,14.929687988418578 10.574218988418579,14.929687988418578 L13.68749998841858,14.929687988418578 C14.37499998841858,14.929687988418578 14.929687988418578,14.37499998841858 14.929687988418578,13.68749998841858 zM8.085937988418578,14.308593988418579 L8.085937988418578,9.95312498841858 C8.085937988418578,9.60937498841858 7.808593988418579,9.33203198841858 7.464843988418579,9.33203198841858 C7.121093988418579,9.33203198841858 6.843749988418579,9.60937498841858 6.843749988418579,9.95312498841858 L6.843749988418579,14.308593988418579 C6.843749988418579,14.652343988418579 7.121093988418579,14.929687988418578 7.464843988418579,14.929687988418578 C7.808593988418579,14.929687988418578 8.085937988418578,14.652343988418579 8.085937988418578,14.308593988418579 zM14.929687988418578,7.464843988418579 C14.929687988418578,7.121093988418579 14.652343988418579,6.843749988418579 14.308593988418579,6.843749988418579 L9.95312498841858,6.843749988418579 C9.60937498841858,6.843749988418579 9.33203198841858,7.121093988418579 9.33203198841858,7.464843988418579 C9.33203198841858,7.808593988418579 9.60937498841858,8.085937988418578 9.95312498841858,8.085937988418578 L14.308593988418579,8.085937988418578 C14.652343988418579,8.085937988418578 14.929687988418578,7.808593988418579 14.929687988418578,7.464843988418579 zM14.929687988418578,7.464843988418579 " id="svg_1"/>
</g></g></svg>