<svg xmlns="http://www.w3.org/2000/svg" width="21" height="21" fill="#cc0000" style=""><rect id="backgroundrect" width="100%" height="100%" x="0" y="0" fill="none" stroke="none"/>
    <g class="currentLayer" style=""><title>Layer 1</title><path fill-rule="evenodd" clip-rule="evenodd" d="M8.888889803314209,11.555559832000732 H0.8888898033142087 C0.3979698033142087,11.555559832000732 -1.9668579120946106e-7,11.157559832000732 -1.9668579120946106e-7,10.666659832000732 C-1.9668579120946106e-7,10.175759832000733 0.3979698033142087,9.777759832000733 0.8888898033142087,9.777759832000733 H8.888889803314209 C9.379789803314209,9.777759832000733 9.777789803314208,9.379859832000733 9.777789803314208,8.888859832000733 V0.8888898320007321 C9.777789803314208,0.3979698320007321 10.17578980331421,-1.6799926783050978e-7 10.66668980331421,-1.6799926783050978e-7 C11.15758980331421,-1.6799926783050978e-7 11.55558980331421,0.3979698320007321 11.55558980331421,0.8888898320007321 V8.888859832000733 C11.55558980331421,10.361659832000733 10.36168980331421,11.555559832000732 8.888889803314209,11.555559832000732 zM7.999989803314209,7.111159832000732 V1.777779832000732 C7.999989803314209,0.795939832000732 7.20408980331421,-1.6799926783050978e-7 6.222189803314208,-1.6799926783050978e-7 H1.7777798033142087 C0.7959398033142087,-1.6799926783050978e-7 -1.9668579120946106e-7,0.795939832000732 -1.9668579120946106e-7,1.777779832000732 V6.2222598320007325 C-1.9668579120946106e-7,7.204059832000732 0.7959398033142087,7.999959832000732 1.7777798033142087,7.999959832000732 H3.555549803314209 C4.04646980331421,7.999959832000732 4.444439803314209,7.602059832000732 4.444439803314209,7.111159832000732 C4.444439803314209,6.620159832000732 4.04646980331421,6.2222598320007325 3.555549803314209,6.2222598320007325 H1.7777798033142087 V1.777779832000732 H6.222189803314208 V7.111159832000732 C6.222189803314208,7.602059832000732 6.62018980331421,7.999959832000732 7.11108980331421,7.999959832000732 C7.6019898033142095,7.999959832000732 7.999989803314209,7.602059832000732 7.999989803314209,7.111159832000732 zM21.33328980331421,6.2222598320007325 V1.777779832000732 C21.33328980331421,0.795939832000732 20.53738980331421,-1.6799926783050978e-7 19.55558980331421,-1.6799926783050978e-7 H15.111089803314208 C14.129289803314208,-1.6799926783050978e-7 13.333289803314209,0.795939832000732 13.333289803314209,1.777779832000732 V3.555559832000732 C13.333289803314209,4.046479832000733 13.731289803314208,4.444449832000732 14.222189803314208,4.444449832000732 C14.713089803314208,4.444449832000732 15.111089803314208,4.046479832000733 15.111089803314208,3.555559832000732 V1.777779832000732 H19.55558980331421 V6.2222598320007325 H14.222189803314208 C13.731289803314208,6.2222598320007325 13.333289803314209,6.620159832000732 13.333289803314209,7.111159832000732 C13.333289803314209,7.602059832000732 13.731289803314208,7.999959832000732 14.222189803314208,7.999959832000732 H19.55558980331421 C20.53738980331421,7.999959832000732 21.33328980331421,7.204059832000732 21.33328980331421,6.2222598320007325 zM7.999989803314209,19.555559832000732 V17.777759832000733 C7.999989803314209,17.286859832000733 7.6019898033142095,16.888859832000733 7.11108980331421,16.888859832000733 C6.62018980331421,16.888859832000733 6.222189803314208,17.286859832000733 6.222189803314208,17.777759832000733 V19.555559832000732 H1.7777798033142087 V15.111159832000734 H7.11108980331421 C7.6019898033142095,15.111159832000734 7.999989803314209,14.713159832000734 7.999989803314209,14.22225983200073 C7.999989803314209,13.731259832000731 7.6019898033142095,13.333359832000731 7.11108980331421,13.333359832000731 H1.7777798033142087 C0.7959398033142087,13.333359832000731 -1.9668579120946106e-7,14.12925983200073 -1.9668579120946106e-7,15.111159832000734 V19.555559832000732 C-1.9668579120946106e-7,20.537359832000732 0.7959398033142087,21.33335983200073 1.7777798033142087,21.33335983200073 H6.222189803314208 C7.20408980331421,21.33335983200073 7.999989803314209,20.537359832000732 7.999989803314209,19.555559832000732 zM21.33328980331421,19.555559832000732 V15.111159832000734 C21.33328980331421,14.12925983200073 20.53738980331421,13.333359832000731 19.55558980331421,13.333359832000731 H17.77778980331421 C17.28688980331421,13.333359832000731 16.88888980331421,13.731259832000731 16.88888980331421,14.22225983200073 C16.88888980331421,14.713159832000734 17.28688980331421,15.111159832000734 17.77778980331421,15.111159832000734 H19.55558980331421 V19.555559832000732 H15.111089803314208 V14.22225983200073 C15.111089803314208,13.731259832000731 14.713089803314208,13.333359832000731 14.222189803314208,13.333359832000731 C13.731289803314208,13.333359832000731 13.333289803314209,13.731259832000731 13.333289803314209,14.22225983200073 V19.555559832000732 C13.333289803314209,20.537359832000732 14.129289803314208,21.33335983200073 15.111089803314208,21.33335983200073 H19.55558980331421 C20.53738980331421,21.33335983200073 21.33328980331421,20.537359832000732 21.33328980331421,19.555559832000732 zM11.55558980331421,20.44445983200073 V14.22225983200073 C11.55558980331421,13.731259832000731 11.15758980331421,13.333359832000731 10.66668980331421,13.333359832000731 C10.17578980331421,13.333359832000731 9.777789803314208,13.731259832000731 9.777789803314208,14.22225983200073 V20.44445983200073 C9.777789803314208,20.93535983200073 10.17578980331421,21.33335983200073 10.66668980331421,21.33335983200073 C11.15758980331421,21.33335983200073 11.55558980331421,20.93535983200073 11.55558980331421,20.44445983200073 zM21.33328980331421,10.666659832000732 C21.33328980331421,10.175759832000733 20.93538980331421,9.777759832000733 20.44448980331421,9.777759832000733 H14.222189803314208 C13.731289803314208,9.777759832000733 13.333289803314209,10.175759832000733 13.333289803314209,10.666659832000732 C13.333289803314209,11.157559832000732 13.731289803314208,11.555559832000732 14.222189803314208,11.555559832000732 H20.44448980331421 C20.93538980331421,11.555559832000732 21.33328980331421,11.157559832000732 21.33328980331421,10.666659832000732 z" fill="#8c92a5" id="svg_1" class=""/></g>
</svg>
