<svg xmlns="http://www.w3.org/2000/svg" width="100" height="100" viewBox="0 0 100 100">
    <path fill="#fff" fill-rule="evenodd" d="M63.164 17.273H68.6L68.556 10 83 24.545l-2.526-.014.01.014H35.3c-5.57 0-10.079 4.517-10.079 10.089v33.548H18v-2.984.561-32.642c0-8.75 7.095-15.844 15.838-15.844h29.326zM32.401 82.727L32.444 90 18 75.455l2.526.014a19.42 19.42 0 0 1-.01-.014H65.7c5.57 0 10.079-4.517 10.079-10.089V31.818H83v35.064c0 8.751-7.095 15.845-15.838 15.845H32.4zm5.821-36.386a3.615 3.615 0 0 1 3.611-3.614 3.609 3.609 0 0 1 3.611 3.614v7.318a3.615 3.615 0 0 1-3.61 3.614 3.609 3.609 0 0 1-3.612-3.614V46.34zm17.334 0a3.615 3.615 0 0 1 3.61-3.614 3.609 3.609 0 0 1 3.612 3.614v7.318a3.615 3.615 0 0 1-3.611 3.614 3.609 3.609 0 0 1-3.611-3.614V46.34z" opacity="1"/>
</svg>
